<svg xmlns="http://www.w3.org/2000/svg" version="1.1" xmlns:xlink="http://www.w3.org/1999/xlink" xmlns:svgjs="http://svgjs.dev/svgjs" width="2000" height="2000" viewBox="0 0 2000 2000"><g transform="matrix(1,0,0,1,-0.28443113772425477,-0.28443113772459583)"><svg viewBox="0 0 334 334" data-background-color="#ffffff" preserveAspectRatio="xMidYMid meet" height="2000" width="2000" xmlns="http://www.w3.org/2000/svg" xmlns:xlink="http://www.w3.org/1999/xlink"><g id="tight-bounds" transform="matrix(1,0,0,1,0.04749999999998522,0.04750000000001364)"><svg viewBox="0 0 333.90454557049503 333.90454557049503" height="333.90454557049503" width="333.90454557049503"><g><svg></svg></g><g><svg viewBox="0 0 333.90454557049503 333.90454557049503" height="333.90454557049503" width="333.90454557049503"><g><path d="M0 166.952c0-92.205 74.747-166.952 166.952-166.952 92.205 0 166.952 74.747 166.953 166.952 0 92.205-74.747 166.952-166.953 166.953-92.205 0-166.952-74.747-166.952-166.953zM166.952 323.273c86.334 0 156.321-69.987 156.321-156.321 0-86.334-69.987-156.321-156.321-156.321-86.334 0-156.321 69.987-156.321 156.321 0 86.334 69.987 156.321 156.321 156.321z" data-fill-palette-color="tertiary" fill="#000000" stroke="transparent"></path><ellipse rx="160.27418187383762" ry="160.27418187383762" cx="166.95227278524752" cy="166.95227278524752" fill="#000000" stroke="transparent" stroke-width="0" fill-opacity="1" data-fill-palette-color="tertiary"></ellipse></g><g transform="matrix(1,0,0,1,129.8634458225023,71.17305217166896)"><svg viewBox="0 0 74.1776539254904 191.55844122715712" height="191.55844122715712" width="74.1776539254904"><g><svg viewBox="0 0 74.1776539254904 191.55844122715712" height="191.55844122715712" width="74.1776539254904"><g><svg viewBox="0 0 120.53422513820539 311.2709429337104" height="191.55844122715712" width="74.1776539254904"><g transform="matrix(1,0,0,1,0,119.71250170655327)"><svg viewBox="0 0 120.53422513820539 191.55844122715712" height="191.55844122715712" width="120.53422513820539"><g id="textblocktransform"><svg viewBox="0 0 120.53422513820539 191.55844122715712" height="191.55844122715712" width="120.53422513820539" id="textblock"><g><svg viewBox="0 0 120.53422513820539 191.55844122715712" height="191.55844122715712" width="120.53422513820539"><g transform="matrix(1,0,0,1,0,0)"><svg width="120.53422513820539" viewBox="4.31 -31.326922740272 19.71 31.326922740272" height="191.55844122715712" data-palette-color="#ffffff"><path d="M22.41 0L6.32 0Q5 0 4.48-1.15L4.48-1.15Q4.31-1.49 4.31-1.9L4.31-1.9 4.31-29.48Q4.31-30.8 5.52-31.21L5.52-31.21Q5.86-31.26 6.44-31.32 7.01-31.38 7.59-30.92 8.16-30.46 8.16-29.48L8.16-29.48 8.16-3.22 22.41-3.22Q23.28-3.22 23.65-2.73 24.02-2.24 24.02-1.64 24.02-1.03 23.62-0.52 23.22 0 22.41 0L22.41 0Z" opacity="1" transform="matrix(1,0,0,1,0,0)" fill="#ffffff" class="wordmark-text-0" data-fill-palette-color="quaternary" id="text-0"></path></svg></g></svg></g></svg></g></svg></g><g transform="matrix(1,0,0,1,23.02203700139723,0)"><svg viewBox="0 0 74.49015113541093 74.49015113541093" height="74.49015113541093" width="74.49015113541093"><g><svg xmlns="http://www.w3.org/2000/svg" xmlns:xlink="http://www.w3.org/1999/xlink" version="1.1" x="0" y="0" viewBox="5 5 90 90" style="enable-background:new 0 0 100 100;" xml:space="preserve" height="74.49015113541093" width="74.49015113541093" class="icon-icon-0" data-fill-palette-color="quaternary" id="icon-0"><path d="M5 95h90V5H5V95zM90.7 50H50v40.7H9.3V50H50V9.3h40.7V50z" fill="#ffffff" data-fill-palette-color="quaternary"></path></svg></g></svg></g><g></g></svg></g></svg></g></svg></g></svg></g><defs></defs></svg><rect width="333.90454557049503" height="333.90454557049503" fill="none" stroke="none" visibility="hidden"></rect></g></svg></g></svg>